<?xml version="1.0" encoding="UTF-8"?>
<svg width="500" height="500" viewBox="0 0 500 500" xmlns="http://www.w3.org/2000/svg">
  <!-- Medical Caduceus with Wings Logo - Correct Version -->

  <!-- Left Wing - More detailed feathers -->
  <path d="M 30 150 C 10 140, 5 160, 25 170 L 50 160 C 30 150, 25 170, 45 180 L 70 170 C 50 160, 45 180, 65 190 L 90 180 C 70 170, 65 190, 85 200 L 110 190 C 90 180, 85 200, 105 210 L 130 200 C 110 190, 105 210, 125 220 L 150 210 Q 180 190, 200 180 Q 150 160, 30 150"
        fill="#FDB813" stroke="#D4A017" stroke-width="1.5"/>

  <!-- Right Wing - More detailed feathers -->
  <path d="M 470 150 C 490 140, 495 160, 475 170 L 450 160 C 470 150, 475 170, 455 180 L 430 170 C 450 160, 455 180, 435 190 L 410 180 C 430 170, 435 190, 415 200 L 390 190 C 410 180, 415 200, 395 210 L 370 200 C 390 190, 395 210, 375 220 L 350 210 Q 320 190, 300 180 Q 350 160, 470 150"
        fill="#FDB813" stroke="#D4A017" stroke-width="1.5"/>

  <!-- Central Staff/Rod -->
  <rect x="246" y="140" width="8" height="240" fill="#4A4A4A" rx="4"/>

  <!-- Number 1 behind the caduceus -->
  <text x="250" y="270" font-family="Arial Black" font-size="160" font-weight="900"
        fill="#2C2C2C" text-anchor="middle" dominant-baseline="middle" opacity="0.3">1</text>

  <!-- First Snake (Left snake) -->
  <path d="M 240 160 Q 220 170, 230 185 Q 240 200, 260 195 Q 280 190, 270 205 Q 260 220, 240 215 Q 220 210, 230 225 Q 240 240, 260 235 Q 280 230, 270 245 Q 260 260, 240 255 Q 220 250, 230 265 Q 240 280, 260 275 Q 280 270, 270 285 Q 260 300, 240 295 Q 220 290, 230 305 Q 240 320, 260 315 Q 280 310, 270 325 Q 260 340, 240 335"
        fill="none" stroke="#4A4A4A" stroke-width="6" stroke-linecap="round"/>

  <!-- Second Snake (Right snake) -->
  <path d="M 260 160 Q 280 170, 270 185 Q 260 200, 240 195 Q 220 190, 230 205 Q 240 220, 260 215 Q 280 210, 270 225 Q 260 240, 240 235 Q 220 230, 230 245 Q 240 260, 260 255 Q 280 250, 270 265 Q 260 280, 240 275 Q 220 270, 230 285 Q 240 300, 260 295 Q 280 290, 270 305 Q 260 320, 240 315 Q 220 310, 230 325 Q 240 340, 260 335"
        fill="none" stroke="#5A5A5A" stroke-width="6" stroke-linecap="round"/>

  <!-- Snake heads at top -->
  <ellipse cx="235" cy="155" rx="8" ry="6" fill="#4A4A4A"/>
  <ellipse cx="265" cy="155" rx="8" ry="6" fill="#5A5A5A"/>

  <!-- Snake eyes -->
  <circle cx="232" cy="154" r="1.5" fill="white"/>
  <circle cx="238" cy="154" r="1.5" fill="white"/>
  <circle cx="262" cy="154" r="1.5" fill="white"/>
  <circle cx="268" cy="154" r="1.5" fill="white"/>

  <!-- CLINIC 1 MEDICAL Text - Matching the exact style -->
  <text x="250" y="430" font-family="Arial, sans-serif" font-size="42" font-weight="bold"
        fill="#FDB813" text-anchor="middle" letter-spacing="3">CLINIC 1 MEDICAL</text>

  <!-- Text underline -->
  <rect x="60" y="442" width="380" height="2" fill="#FDB813"/>
</svg>